<mxfile host="app.diagrams.net" modified="2023-08-29T11:05:52.808Z" agent="Mozilla/5.0 (Macintosh; Intel Mac OS X 10_15_7) AppleWebKit/537.36 (KHTML, like Gecko) Chrome/116.0.0.0 Safari/537.36" etag="GzCQzxWvuvDRZB-Xj-Xj" version="21.6.9" type="github">
  <diagram id="C5RBs43oDa-KdzZeNtuy" name="Page-1">
    <mxGraphModel dx="1546" dy="830" grid="1" gridSize="10" guides="1" tooltips="1" connect="1" arrows="1" fold="1" page="1" pageScale="1" pageWidth="827" pageHeight="1169" math="0" shadow="0">
      <root>
        <mxCell id="WIyWlLk6GJQsqaUBKTNV-0" />
        <mxCell id="WIyWlLk6GJQsqaUBKTNV-1" parent="WIyWlLk6GJQsqaUBKTNV-0" />
        <mxCell id="78ykDowQJJws5FdyZejB-0" value="App" style="swimlane;fontStyle=1;align=center;verticalAlign=top;childLayout=stackLayout;horizontal=1;startSize=26;horizontalStack=0;resizeParent=1;resizeParentMax=0;resizeLast=0;collapsible=1;marginBottom=0;whiteSpace=wrap;html=1;" vertex="1" parent="WIyWlLk6GJQsqaUBKTNV-1">
          <mxGeometry x="60" y="210" width="270" height="270" as="geometry" />
        </mxCell>
        <mxCell id="78ykDowQJJws5FdyZejB-1" value="+ basename: string&lt;br&gt;+ name: string&lt;br&gt;+ description: string&lt;br&gt;+ options: CliOptions&lt;br&gt;+ runFunc: RunFunc&lt;br&gt;+ silentce: bool&lt;br&gt;+ noVersion: bool&lt;br&gt;+ noConfig: bool&lt;br&gt;+ commands: [ ]*Command&lt;br&gt;+ args: cobra.PositionalArgs&lt;br&gt;+ cmd: *cobra.Command" style="text;strokeColor=none;fillColor=none;align=left;verticalAlign=top;spacingLeft=4;spacingRight=4;overflow=hidden;rotatable=0;points=[[0,0.5],[1,0.5]];portConstraint=eastwest;whiteSpace=wrap;html=1;" vertex="1" parent="78ykDowQJJws5FdyZejB-0">
          <mxGeometry y="26" width="270" height="164" as="geometry" />
        </mxCell>
        <mxCell id="78ykDowQJJws5FdyZejB-2" value="" style="line;strokeWidth=1;fillColor=none;align=left;verticalAlign=middle;spacingTop=-1;spacingLeft=3;spacingRight=3;rotatable=0;labelPosition=right;points=[];portConstraint=eastwest;strokeColor=inherit;" vertex="1" parent="78ykDowQJJws5FdyZejB-0">
          <mxGeometry y="190" width="270" height="8" as="geometry" />
        </mxCell>
        <mxCell id="78ykDowQJJws5FdyZejB-3" value="+ AddCommand(*Command): void&lt;br&gt;+ AddCommands(...*Command): void&lt;br&gt;- cobraCommand(): *cobra.Command&lt;br&gt;- runCommand(*cobra.Command,[ ]string): void" style="text;strokeColor=none;fillColor=none;align=left;verticalAlign=top;spacingLeft=4;spacingRight=4;overflow=hidden;rotatable=0;points=[[0,0.5],[1,0.5]];portConstraint=eastwest;whiteSpace=wrap;html=1;" vertex="1" parent="78ykDowQJJws5FdyZejB-0">
          <mxGeometry y="198" width="270" height="72" as="geometry" />
        </mxCell>
        <mxCell id="78ykDowQJJws5FdyZejB-4" value="&lt;span style=&quot;font-weight: normal;&quot;&gt;«interface»&lt;/span&gt;&lt;br style=&quot;border-color: var(--border-color); font-weight: 400;&quot;&gt;CliOptions" style="swimlane;fontStyle=1;align=center;verticalAlign=top;childLayout=stackLayout;horizontal=1;startSize=40;horizontalStack=0;resizeParent=1;resizeParentMax=0;resizeLast=0;collapsible=1;marginBottom=0;whiteSpace=wrap;html=1;" vertex="1" parent="WIyWlLk6GJQsqaUBKTNV-1">
          <mxGeometry x="414" y="170" width="200" height="90" as="geometry" />
        </mxCell>
        <mxCell id="78ykDowQJJws5FdyZejB-7" value="+ Flags(): cliflag.NamedFlagSets&lt;br&gt;+ Validate(): [ ]Error" style="text;strokeColor=none;fillColor=none;align=left;verticalAlign=top;spacingLeft=4;spacingRight=4;overflow=hidden;rotatable=0;points=[[0,0.5],[1,0.5]];portConstraint=eastwest;whiteSpace=wrap;html=1;" vertex="1" parent="78ykDowQJJws5FdyZejB-4">
          <mxGeometry y="40" width="200" height="50" as="geometry" />
        </mxCell>
        <mxCell id="78ykDowQJJws5FdyZejB-9" value="Command" style="swimlane;fontStyle=1;align=center;verticalAlign=top;childLayout=stackLayout;horizontal=1;startSize=26;horizontalStack=0;resizeParent=1;resizeParentMax=0;resizeLast=0;collapsible=1;marginBottom=0;whiteSpace=wrap;html=1;" vertex="1" parent="WIyWlLk6GJQsqaUBKTNV-1">
          <mxGeometry x="410" y="360" width="280" height="200" as="geometry" />
        </mxCell>
        <mxCell id="78ykDowQJJws5FdyZejB-10" value="+ usage: string&lt;br&gt;+ desc: string&lt;br&gt;+ options: CliOptions&lt;br&gt;+ commands: [ ]*Command&lt;br&gt;+ runFunc: RunCommandFunc" style="text;strokeColor=none;fillColor=none;align=left;verticalAlign=top;spacingLeft=4;spacingRight=4;overflow=hidden;rotatable=0;points=[[0,0.5],[1,0.5]];portConstraint=eastwest;whiteSpace=wrap;html=1;" vertex="1" parent="78ykDowQJJws5FdyZejB-9">
          <mxGeometry y="26" width="280" height="84" as="geometry" />
        </mxCell>
        <mxCell id="78ykDowQJJws5FdyZejB-11" value="" style="line;strokeWidth=1;fillColor=none;align=left;verticalAlign=middle;spacingTop=-1;spacingLeft=3;spacingRight=3;rotatable=0;labelPosition=right;points=[];portConstraint=eastwest;strokeColor=inherit;" vertex="1" parent="78ykDowQJJws5FdyZejB-9">
          <mxGeometry y="110" width="280" height="8" as="geometry" />
        </mxCell>
        <mxCell id="78ykDowQJJws5FdyZejB-12" value="+ AddCommand(*Command): void&lt;br style=&quot;border-color: var(--border-color);&quot;&gt;+ AddCommands(...*Command): void&lt;br style=&quot;border-color: var(--border-color);&quot;&gt;- cobraCommand(): *cobra.Command&lt;br style=&quot;border-color: var(--border-color);&quot;&gt;- runCommand(*cobra.Command,[ ]string): void" style="text;strokeColor=none;fillColor=none;align=left;verticalAlign=top;spacingLeft=4;spacingRight=4;overflow=hidden;rotatable=0;points=[[0,0.5],[1,0.5]];portConstraint=eastwest;whiteSpace=wrap;html=1;" vertex="1" parent="78ykDowQJJws5FdyZejB-9">
          <mxGeometry y="118" width="280" height="82" as="geometry" />
        </mxCell>
        <mxCell id="78ykDowQJJws5FdyZejB-13" value="" style="endArrow=open;endSize=12;dashed=1;html=1;rounded=0;exitX=1.011;exitY=0.591;exitDx=0;exitDy=0;exitPerimeter=0;entryX=-0.02;entryY=0.36;entryDx=0;entryDy=0;entryPerimeter=0;" edge="1" parent="WIyWlLk6GJQsqaUBKTNV-1" source="78ykDowQJJws5FdyZejB-1" target="78ykDowQJJws5FdyZejB-7">
          <mxGeometry width="160" relative="1" as="geometry">
            <mxPoint x="330" y="430" as="sourcePoint" />
            <mxPoint x="490" y="430" as="targetPoint" />
          </mxGeometry>
        </mxCell>
        <mxCell id="78ykDowQJJws5FdyZejB-15" value="" style="endArrow=open;endSize=12;dashed=1;html=1;rounded=0;exitX=1.011;exitY=0.598;exitDx=0;exitDy=0;exitPerimeter=0;entryX=0;entryY=1;entryDx=0;entryDy=0;entryPerimeter=0;" edge="1" parent="WIyWlLk6GJQsqaUBKTNV-1" source="78ykDowQJJws5FdyZejB-1" target="78ykDowQJJws5FdyZejB-10">
          <mxGeometry width="160" relative="1" as="geometry">
            <mxPoint x="330" y="430" as="sourcePoint" />
            <mxPoint x="490" y="430" as="targetPoint" />
          </mxGeometry>
        </mxCell>
        <mxCell id="78ykDowQJJws5FdyZejB-18" value="" style="endArrow=open;endSize=12;dashed=1;html=1;rounded=0;entryX=0.465;entryY=1.04;entryDx=0;entryDy=0;entryPerimeter=0;exitX=0.5;exitY=0;exitDx=0;exitDy=0;" edge="1" parent="WIyWlLk6GJQsqaUBKTNV-1" source="78ykDowQJJws5FdyZejB-9" target="78ykDowQJJws5FdyZejB-7">
          <mxGeometry x="0.0092" width="160" relative="1" as="geometry">
            <mxPoint x="330" y="430" as="sourcePoint" />
            <mxPoint x="490" y="430" as="targetPoint" />
            <mxPoint as="offset" />
          </mxGeometry>
        </mxCell>
      </root>
    </mxGraphModel>
  </diagram>
</mxfile>
